<?xml version="1.0" encoding="UTF-8" standalone="no"?>
<!DOCTYPE svg PUBLIC "-//W3C//DTD SVG 1.1//EN" "http://www.w3.org/Graphics/SVG/1.1/DTD/svg11.dtd">
<svg width="100%" height="100%" viewBox="0 0 800 600" version="1.1" xmlns="http://www.w3.org/2000/svg" xmlns:xlink="http://www.w3.org/1999/xlink" xml:space="preserve" xmlns:serif="http://www.serif.com/" style="fill-rule:evenodd;clip-rule:evenodd;stroke-linejoin:round;stroke-miterlimit:2;">
    <g transform="matrix(1,0,0,1,0,-3499.59)">
        <g id="Artboard2" transform="matrix(2.11667,0,0,2.54,-1700,-12594.7)">
            <rect x="803.15" y="6336.35" width="377.953" height="236.22" style="fill:none;"/>
            <g transform="matrix(1.10886,0,0,0.924046,680.344,5371.95)" style="fill:#525252;fill-rule:nonzero;">
                <path d="M144.999,1148.54C140.233,1148.54 136.166,1147.35 132.799,1144.96C129.433,1142.58 126.866,1139.32 125.099,1135.19C123.333,1131.06 122.449,1126.39 122.449,1121.19C122.449,1117.45 123.066,1114 124.299,1110.81C125.533,1107.63 127.208,1104.85 129.324,1102.46C131.441,1100.08 133.841,1098.21 136.524,1096.86C139.208,1095.51 141.999,1094.84 144.899,1094.84C146.533,1094.84 148.174,1094.95 149.824,1095.19C151.474,1095.42 153.449,1095.9 155.749,1096.64C154.849,1098.67 153.741,1100.33 152.424,1101.61C151.108,1102.9 149.466,1103.57 147.499,1103.64C144.933,1103.74 142.749,1104.48 140.949,1105.86C139.149,1107.25 137.766,1109.23 136.799,1111.81C135.833,1114.4 135.349,1117.52 135.349,1121.19C135.349,1124.59 135.808,1127.66 136.724,1130.41C137.641,1133.16 138.974,1135.36 140.724,1136.99C142.474,1138.62 144.599,1139.44 147.099,1139.44C149.166,1139.44 151.191,1138.86 153.174,1137.69C155.158,1136.52 157.199,1134.72 159.299,1132.29L159.299,1071.54L171.399,1071.54L171.399,1132.99C171.399,1135.65 171.533,1138.18 171.799,1140.56C172.066,1142.95 172.433,1145.2 172.899,1147.34L163.749,1147.34C162.916,1146.77 162.224,1146.07 161.674,1145.24C161.124,1144.4 160.649,1143.45 160.249,1142.39L159.849,1140.34L158.499,1142.34C156.133,1144.67 153.791,1146.29 151.474,1147.19C149.158,1148.09 146.999,1148.54 144.999,1148.54Z" />
                <path d="M199.849,1148.54C196.549,1148.54 193.699,1147.86 191.299,1146.51C188.899,1145.16 187.058,1143.36 185.774,1141.11C184.491,1138.86 183.849,1136.42 183.849,1133.79C183.849,1130.79 184.691,1128.1 186.374,1125.71C188.058,1123.33 190.899,1121.36 194.899,1119.79C198.899,1118.22 204.383,1117.11 211.349,1116.44C211.149,1117.74 210.799,1119.01 210.299,1120.24C209.799,1121.47 209.074,1122.53 208.124,1123.41C207.174,1124.3 205.933,1124.87 204.399,1125.14C202.233,1125.47 200.533,1126.02 199.299,1126.79C198.066,1127.56 197.191,1128.45 196.674,1129.46C196.158,1130.48 195.899,1131.57 195.899,1132.74C195.899,1134.61 196.558,1136.19 197.874,1137.49C199.191,1138.79 200.866,1139.44 202.899,1139.44C204.966,1139.44 207.041,1138.81 209.124,1137.56C211.208,1136.31 213.149,1134.57 214.949,1132.34L214.949,1115.84C214.949,1112.17 213.991,1109.23 212.074,1107.01C210.158,1104.8 207.249,1103.69 203.349,1103.69C201.649,1103.69 199.874,1103.86 198.024,1104.21C196.174,1104.56 194.049,1105.17 191.649,1106.04L188.699,1098.24C191.766,1096.84 194.749,1095.88 197.649,1095.36C200.549,1094.85 203.149,1094.59 205.449,1094.59C212.283,1094.59 217.558,1096.45 221.274,1100.16C224.991,1103.88 226.849,1109.2 226.849,1116.14L226.849,1132.99C226.849,1135.65 226.983,1138.18 227.249,1140.56C227.516,1142.95 227.916,1145.2 228.449,1147.34L219.499,1147.34C218.599,1146.81 217.866,1146.09 217.299,1145.19C216.733,1144.29 216.249,1143.32 215.849,1142.29L215.649,1140.39L214.449,1142.14C211.649,1144.77 209.141,1146.5 206.924,1147.31C204.708,1148.13 202.349,1148.54 199.849,1148.54Z" />
                <path d="M253.599,1147.34L234.199,1095.64L247.049,1095.64L259.499,1133.69L260.249,1136.49L260.949,1133.69L273.299,1095.64L285.899,1095.64L266.499,1147.34L253.599,1147.34Z" />
                <path d="M316.449,1148.54C312.216,1148.54 308.499,1147.77 305.299,1146.24C302.099,1144.7 299.433,1142.64 297.299,1140.04C295.166,1137.44 293.558,1134.48 292.474,1131.16C291.391,1127.85 290.849,1124.39 290.849,1120.79C290.849,1115.32 291.958,1110.62 294.174,1106.69C296.391,1102.76 299.424,1099.73 303.274,1097.61C307.124,1095.5 311.499,1094.44 316.399,1094.44C319.999,1094.44 323.233,1095.18 326.099,1096.66C328.966,1098.15 331.299,1100.2 333.099,1102.81C334.899,1105.43 336.008,1108.49 336.424,1111.99C336.841,1115.49 336.383,1119.24 335.049,1123.24L306.649,1123.24C307.349,1121.11 308.374,1119.31 309.724,1117.84C311.074,1116.37 312.749,1115.64 314.749,1115.64L325.099,1115.64C325.366,1113.4 325.141,1111.34 324.424,1109.44C323.708,1107.54 322.583,1106.02 321.049,1104.89C319.516,1103.76 317.699,1103.19 315.599,1103.19C313.399,1103.19 311.333,1103.81 309.399,1105.06C307.466,1106.31 305.908,1108.22 304.724,1110.79C303.541,1113.36 302.949,1116.61 302.949,1120.54C302.949,1124.4 303.574,1127.76 304.824,1130.59C306.074,1133.42 307.816,1135.61 310.049,1137.14C312.283,1138.67 314.849,1139.44 317.749,1139.44C320.049,1139.44 322.291,1139.16 324.474,1138.61C326.658,1138.06 329.183,1137.11 332.049,1135.74L335.199,1144.04C331.733,1145.7 328.441,1146.87 325.324,1147.54C322.208,1148.2 319.249,1148.54 316.449,1148.54Z" />
                <path d="M400.799,1148.44C396.299,1148.44 392.399,1147.47 389.099,1145.54C385.799,1143.61 383.241,1140.98 381.424,1137.66C379.608,1134.35 378.699,1130.61 378.699,1126.44C378.699,1121.9 379.866,1117.94 382.199,1114.54C384.533,1111.14 387.316,1108.22 390.549,1105.79C388.449,1102.79 387.008,1100.22 386.224,1098.09C385.441,1095.95 385.049,1093.89 385.049,1091.89C385.049,1088.12 385.958,1084.87 387.774,1082.14C389.591,1079.4 392.099,1077.31 395.299,1075.84C398.499,1074.37 402.216,1073.64 406.449,1073.64C408.649,1073.64 411.108,1073.92 413.824,1074.49C416.541,1075.06 419.066,1075.9 421.399,1077.04L418.649,1085.14C416.683,1084.37 414.574,1083.79 412.324,1083.39C410.074,1082.99 408.049,1082.79 406.249,1082.79C403.316,1082.79 400.908,1083.56 399.024,1085.09C397.141,1086.62 396.199,1088.59 396.199,1090.99C396.199,1093.72 397.016,1096.24 398.649,1098.54C400.283,1100.84 402.466,1103.64 405.199,1106.94L419.799,1124.04L420.649,1125.44L421.249,1123.89C422.416,1121.52 423.349,1119.19 424.049,1116.89C424.749,1114.59 425.299,1112.11 425.699,1109.44L435.549,1109.44C434.649,1113.84 433.558,1117.97 432.274,1121.84C430.991,1125.7 429.316,1129.32 427.249,1132.69L439.899,1147.34L425.599,1147.34L396.899,1113.89L396.149,1112.59L395.249,1113.99C393.883,1115.49 392.783,1117.13 391.949,1118.91C391.116,1120.7 390.699,1122.77 390.699,1125.14C390.699,1129.24 391.691,1132.62 393.674,1135.29C395.658,1137.95 398.533,1139.29 402.299,1139.29C402.999,1139.29 403.633,1139.23 404.199,1139.11C404.766,1139 405.416,1138.87 406.149,1138.74C408.483,1138.34 410.516,1138.57 412.249,1139.44C413.983,1140.31 415.566,1141.49 416.999,1142.99C414.666,1144.76 412.199,1146.11 409.599,1147.04C406.999,1147.97 404.066,1148.44 400.799,1148.44Z" />
                <path d="M202.449,1248.34C199.883,1248.34 197.016,1248.11 193.849,1247.64C190.683,1247.17 186.983,1246.01 182.749,1244.14L185.599,1235.89C188.499,1237.09 191.191,1237.95 193.674,1238.46C196.158,1238.98 198.449,1239.24 200.549,1239.24C203.249,1239.24 205.224,1238.65 206.474,1237.46C207.724,1236.28 208.349,1234.89 208.349,1233.29C208.349,1231.65 207.766,1230.3 206.599,1229.21C205.433,1228.13 203.933,1227.15 202.099,1226.29C200.266,1225.42 198.316,1224.53 196.249,1223.61C194.183,1222.7 192.233,1221.62 190.399,1220.39C188.566,1219.15 187.066,1217.63 185.899,1215.81C184.733,1214 184.149,1211.74 184.149,1209.04C184.149,1206.9 184.749,1204.74 185.949,1202.54C187.149,1200.34 189.041,1198.49 191.624,1196.99C194.208,1195.49 197.566,1194.74 201.699,1194.74C203.833,1194.74 206.066,1194.91 208.399,1195.26C210.733,1195.61 213.416,1196.31 216.449,1197.34L213.599,1205.39C211.199,1204.69 209.166,1204.2 207.499,1203.94C205.833,1203.67 204.216,1203.54 202.649,1203.54C200.583,1203.54 198.916,1203.98 197.649,1204.86C196.383,1205.75 195.749,1207.02 195.749,1208.69C195.749,1210.22 196.333,1211.54 197.499,1212.64C198.666,1213.74 200.166,1214.72 201.999,1215.59C203.833,1216.45 205.783,1217.37 207.849,1218.34C209.916,1219.31 211.866,1220.42 213.699,1221.69C215.533,1222.95 217.033,1224.51 218.199,1226.34C219.366,1228.17 219.949,1230.44 219.949,1233.14C219.949,1236.11 219.124,1238.73 217.474,1241.01C215.824,1243.3 213.666,1245.09 210.999,1246.39C208.333,1247.69 205.483,1248.34 202.449,1248.34Z" />
                <path d="M251.249,1248.54C245.249,1248.54 240.649,1246.74 237.449,1243.14C234.249,1239.54 232.649,1234.42 232.649,1227.79L232.649,1204.39L224.049,1204.39L224.049,1197.79L232.649,1195.64L232.649,1182.99L244.149,1179.29L244.149,1228.24C244.149,1231.64 244.883,1234.37 246.349,1236.44C247.816,1238.51 249.733,1239.54 252.099,1239.54C253.199,1239.54 254.358,1239.43 255.574,1239.21C256.791,1239 258.266,1238.61 259.999,1238.04L262.599,1246.04C260.099,1246.87 257.991,1247.5 256.274,1247.91C254.558,1248.33 252.883,1248.54 251.249,1248.54ZM257.049,1204.39C255.249,1204.39 253.733,1203.95 252.499,1203.06C251.266,1202.18 250.258,1201.07 249.474,1199.74C248.691,1198.4 248.083,1197.04 247.649,1195.64L261.999,1195.64L261.999,1204.39L257.049,1204.39Z" />
                <path d="M297.249,1248.54C293.016,1248.54 289.299,1247.77 286.099,1246.24C282.899,1244.7 280.233,1242.64 278.099,1240.04C275.966,1237.44 274.358,1234.48 273.274,1231.16C272.191,1227.85 271.649,1224.39 271.649,1220.79C271.649,1215.32 272.758,1210.62 274.974,1206.69C277.191,1202.76 280.224,1199.73 284.074,1197.61C287.924,1195.5 292.299,1194.44 297.199,1194.44C300.799,1194.44 304.033,1195.18 306.899,1196.66C309.766,1198.15 312.099,1200.2 313.899,1202.81C315.699,1205.43 316.808,1208.49 317.224,1211.99C317.641,1215.49 317.183,1219.24 315.849,1223.24L287.449,1223.24C288.149,1221.11 289.174,1219.31 290.524,1217.84C291.874,1216.37 293.549,1215.64 295.549,1215.64L305.899,1215.64C306.166,1213.4 305.941,1211.34 305.224,1209.44C304.508,1207.54 303.383,1206.02 301.849,1204.89C300.316,1203.76 298.499,1203.19 296.399,1203.19C294.199,1203.19 292.133,1203.81 290.199,1205.06C288.266,1206.31 286.708,1208.22 285.524,1210.79C284.341,1213.36 283.749,1216.61 283.749,1220.54C283.749,1224.4 284.374,1227.76 285.624,1230.59C286.874,1233.42 288.616,1235.61 290.849,1237.14C293.083,1238.67 295.649,1239.44 298.549,1239.44C300.849,1239.44 303.091,1239.16 305.274,1238.61C307.458,1238.06 309.983,1237.11 312.849,1235.74L315.999,1244.04C312.533,1245.7 309.241,1246.87 306.124,1247.54C303.008,1248.2 300.049,1248.54 297.249,1248.54Z" />
                <path d="M330.299,1271.44L330.299,1209.99C330.299,1207.29 330.174,1204.75 329.924,1202.36C329.674,1199.98 329.299,1197.74 328.799,1195.64L337.949,1195.64C338.816,1196.2 339.533,1196.93 340.099,1197.81C340.666,1198.7 341.149,1199.7 341.549,1200.84L341.799,1202.69L343.049,1200.79C345.483,1198.39 347.866,1196.73 350.199,1195.81C352.533,1194.9 354.716,1194.44 356.749,1194.44C361.483,1194.44 365.533,1195.63 368.899,1198.01C372.266,1200.4 374.833,1203.65 376.599,1207.79C378.366,1211.92 379.249,1216.59 379.249,1221.79C379.249,1225.52 378.633,1228.98 377.399,1232.16C376.166,1235.35 374.491,1238.13 372.374,1240.51C370.258,1242.9 367.858,1244.76 365.174,1246.11C362.491,1247.46 359.699,1248.14 356.799,1248.14C355.166,1248.14 353.516,1248.01 351.849,1247.76C350.183,1247.51 348.216,1247.04 345.949,1246.34C346.849,1244.31 347.958,1242.64 349.274,1241.34C350.591,1240.04 352.199,1239.37 354.099,1239.34C356.699,1239.24 358.908,1238.5 360.724,1237.11C362.541,1235.73 363.933,1233.75 364.899,1231.16C365.866,1228.58 366.349,1225.45 366.349,1221.79C366.349,1218.39 365.891,1215.31 364.974,1212.54C364.058,1209.77 362.724,1207.58 360.974,1205.96C359.224,1204.35 357.099,1203.54 354.599,1203.54C352.533,1203.54 350.499,1204.12 348.499,1205.29C346.499,1206.45 344.466,1208.26 342.399,1210.69L342.399,1271.44L330.299,1271.44Z" />
                <path d="M391.299,1247.34L391.299,1171.54L403.399,1171.54L403.399,1247.34L391.299,1247.34ZM423.599,1247.34L423.599,1210.29C423.599,1208.39 423.208,1206.82 422.424,1205.59C421.641,1204.36 420.399,1203.74 418.699,1203.74C418.033,1203.74 417.474,1203.81 417.024,1203.96C416.574,1204.11 415.916,1204.24 415.049,1204.34C413.383,1204.57 411.899,1204.19 410.599,1203.19C409.299,1202.19 408.083,1200.86 406.949,1199.19C410.349,1197.26 413.233,1195.98 415.599,1195.36C417.966,1194.75 420.066,1194.44 421.899,1194.44C424.299,1194.44 426.558,1194.99 428.674,1196.09C430.791,1197.19 432.516,1198.92 433.849,1201.29C435.183,1203.65 435.849,1206.74 435.849,1210.54L435.849,1247.34L423.599,1247.34Z" />
            </g>
        </g>
    </g>
</svg>
